# xmcd
#
# Track frame offsets:
#	150
#	14657
#	33815
#	50957
#	65817
#	80545
#	101922
#	125467
#	139267
#	154692
#	169290
#	189310
#	202445
#	220965
#	233822
#
# Disc length: 3357 seconds
#
# Revision: 0
# Processed by: cddbd v1.5.2PL0 Copyright (c) Steve Scherf et al.
# Submitted via: EasyCDDAExtractor 11.1.0.1
#
DISCID=e80d1b0f
DTITLE=Henrik - Black and White
DYEAR=1900
DGENRE=country
TTITLE0=One fine day
TTITLE1=Coming home
TTITLE2=Never felt so blue
TTITLE3=Let your love flow
TTITLE4=Singing the blues
TTITLE5=Nikita
TTITLE6=Blanket on the ground
TTITLE7=Ruby don't take your love to town
TTITLE8=Song song blue
TTITLE9=Hello Marilou
TTITLE10=Nobody's child
TTITLE11=Country road
TTITLE12=Lady in red
TTITLE13=Lonesome me
TTITLE14=Island in the stream
EXTD=
EXTT0=
EXTT1=
EXTT2=
EXTT3=
EXTT4=
EXTT5=
EXTT6=
EXTT7=
EXTT8=
EXTT9=
EXTT10=
EXTT11=
EXTT12=
EXTT13=
EXTT14=
PLAYORDER=
